<svg version="1.1" viewBox="0.0 0.0 425.91076115485566 168.86089238845145" fill="none" stroke="none" stroke-linecap="square" stroke-miterlimit="10" xmlns:xlink="http://www.w3.org/1999/xlink" xmlns="http://www.w3.org/2000/svg"><clipPath id="p.0"><path d="m0 0l425.91077 0l0 168.86089l-425.91077 0l0 -168.86089z" clip-rule="nonzero"/></clipPath><g clip-path="url(#p.0)"><path fill="#000000" fill-opacity="0.0" d="m0 0l425.91077 0l0 168.86089l-425.91077 0z" fill-rule="evenodd"/><path fill="#d9d9d9" d="m2.191972 32.360256l18.834644 0l0 18.834648l-18.834644 0z" fill-rule="evenodd"/><path stroke="#000000" stroke-width="1.0" stroke-linejoin="round" stroke-linecap="butt" d="m2.191972 32.360256l18.834644 0l0 18.834648l-18.834644 0z" fill-rule="evenodd"/><path fill="#000000" d="m42.328453 32.360256l18.834648 0l0 18.834648l-18.834648 0z" fill-rule="evenodd"/><path stroke="#000000" stroke-width="1.0" stroke-linejoin="round" stroke-linecap="butt" d="m42.328453 32.360256l18.834648 0l0 18.834648l-18.834648 0z" fill-rule="evenodd"/><path fill="#000000" fill-opacity="0.0" d="m42.328453 41.77758l-21.291336 0" fill-rule="evenodd"/><path stroke="#000000" stroke-width="1.0" stroke-linejoin="round" stroke-linecap="butt" d="m42.328457 41.77758l-15.291342 0" fill-rule="evenodd"/><path fill="#000000" stroke="#000000" stroke-width="1.0" stroke-linecap="butt" d="m27.037115 40.125847l-4.5380974 1.6517334l4.5380974 1.6517334z" fill-rule="evenodd"/><path fill="#d9d9d9" d="m82.45444 32.360256l18.834648 0l0 18.834648l-18.834648 0z" fill-rule="evenodd"/><path stroke="#000000" stroke-width="1.0" stroke-linejoin="round" stroke-linecap="butt" d="m82.45444 32.360256l18.834648 0l0 18.834648l-18.834648 0z" fill-rule="evenodd"/><path fill="#000000" fill-opacity="0.0" d="m82.45444 41.77758l-21.291336 0" fill-rule="evenodd"/><path stroke="#000000" stroke-width="1.0" stroke-linejoin="round" stroke-linecap="butt" d="m82.45444 41.77758l-15.291336 0" fill-rule="evenodd"/><path fill="#000000" stroke="#000000" stroke-width="1.0" stroke-linecap="butt" d="m67.1631 40.125847l-4.538101 1.6517334l4.538101 1.6517334z" fill-rule="evenodd"/><path fill="#d9d9d9" d="m122.58042 32.360256l18.834648 0l0 18.834648l-18.834648 0z" fill-rule="evenodd"/><path stroke="#000000" stroke-width="1.0" stroke-linejoin="round" stroke-linecap="butt" d="m122.58042 32.360256l18.834648 0l0 18.834648l-18.834648 0z" fill-rule="evenodd"/><path fill="#000000" fill-opacity="0.0" d="m122.58042 41.77758l-21.291336 0" fill-rule="evenodd"/><path stroke="#000000" stroke-width="1.0" stroke-linejoin="round" stroke-linecap="butt" d="m122.58042 41.77758l-15.291336 0" fill-rule="evenodd"/><path fill="#000000" stroke="#000000" stroke-width="1.0" stroke-linecap="butt" d="m107.289085 40.125847l-4.538101 1.6517334l4.538101 1.6517334z" fill-rule="evenodd"/><path fill="#d9d9d9" d="m162.7064 32.360256l18.83464 0l0 18.834648l-18.83464 0z" fill-rule="evenodd"/><path stroke="#000000" stroke-width="1.0" stroke-linejoin="round" stroke-linecap="butt" d="m162.7064 32.360256l18.83464 0l0 18.834648l-18.83464 0z" fill-rule="evenodd"/><path fill="#000000" fill-opacity="0.0" d="m162.7064 41.77758l-21.291336 0" fill-rule="evenodd"/><path stroke="#000000" stroke-width="1.0" stroke-linejoin="round" stroke-linecap="butt" d="m162.7064 41.77758l-15.291336 0" fill-rule="evenodd"/><path fill="#000000" stroke="#000000" stroke-width="1.0" stroke-linecap="butt" d="m147.41507 40.125847l-4.538101 1.6517334l4.538101 1.6517334z" fill-rule="evenodd"/><path fill="#d9d9d9" d="m202.8324 32.360256l18.83464 0l0 18.834648l-18.83464 0z" fill-rule="evenodd"/><path stroke="#000000" stroke-width="1.0" stroke-linejoin="round" stroke-linecap="butt" d="m202.8324 32.360256l18.83464 0l0 18.834648l-18.83464 0z" fill-rule="evenodd"/><path fill="#000000" fill-opacity="0.0" d="m202.8324 41.77758l-21.291351 0" fill-rule="evenodd"/><path stroke="#000000" stroke-width="1.0" stroke-linejoin="round" stroke-linecap="butt" d="m202.8324 41.77758l-15.291351 0" fill-rule="evenodd"/><path fill="#000000" stroke="#000000" stroke-width="1.0" stroke-linecap="butt" d="m187.54105 40.125847l-4.538086 1.6517334l4.538086 1.6517334z" fill-rule="evenodd"/><path fill="#d9d9d9" d="m242.95837 32.360256l18.834656 0l0 18.834648l-18.834656 0z" fill-rule="evenodd"/><path stroke="#000000" stroke-width="1.0" stroke-linejoin="round" stroke-linecap="butt" d="m242.95837 32.360256l18.834656 0l0 18.834648l-18.834656 0z" fill-rule="evenodd"/><path fill="#000000" fill-opacity="0.0" d="m242.95837 41.77758l-21.291336 0" fill-rule="evenodd"/><path stroke="#000000" stroke-width="1.0" stroke-linejoin="round" stroke-linecap="butt" d="m242.95837 41.77758l-15.291336 0" fill-rule="evenodd"/><path fill="#000000" stroke="#000000" stroke-width="1.0" stroke-linecap="butt" d="m227.66704 40.125847l-4.538101 1.6517334l4.538101 1.6517334z" fill-rule="evenodd"/><path fill="#d9d9d9" d="m283.08435 32.360256l18.834656 0l0 18.834648l-18.834656 0z" fill-rule="evenodd"/><path stroke="#000000" stroke-width="1.0" stroke-linejoin="round" stroke-linecap="butt" d="m283.08435 32.360256l18.834656 0l0 18.834648l-18.834656 0z" fill-rule="evenodd"/><path fill="#000000" fill-opacity="0.0" d="m283.08435 41.77758l-21.29132 0" fill-rule="evenodd"/><path stroke="#000000" stroke-width="1.0" stroke-linejoin="round" stroke-linecap="butt" d="m283.08435 41.77758l-15.291321 0" fill-rule="evenodd"/><path fill="#000000" stroke="#000000" stroke-width="1.0" stroke-linecap="butt" d="m267.79303 40.125847l-4.5381165 1.6517334l4.5381165 1.6517334z" fill-rule="evenodd"/><path fill="#d9d9d9" d="m323.21036 32.360256l18.834625 0l0 18.834648l-18.834625 0z" fill-rule="evenodd"/><path stroke="#000000" stroke-width="1.0" stroke-linejoin="round" stroke-linecap="butt" d="m323.21036 32.360256l18.834625 0l0 18.834648l-18.834625 0z" fill-rule="evenodd"/><path fill="#000000" fill-opacity="0.0" d="m323.21036 41.77758l-21.35434 0.598423" fill-rule="evenodd"/><path stroke="#000000" stroke-width="1.0" stroke-linejoin="round" stroke-linecap="butt" d="m323.21036 41.77758l-15.356689 0.43034744" fill-rule="evenodd"/><path fill="#000000" stroke="#000000" stroke-width="1.0" stroke-linecap="butt" d="m307.80737 40.556847l-4.4900208 1.7782059l4.5825806 1.5239601z" fill-rule="evenodd"/><path fill="#d9d9d9" d="m363.33633 32.360256l18.834625 0l0 18.834648l-18.834625 0z" fill-rule="evenodd"/><path stroke="#000000" stroke-width="1.0" stroke-linejoin="round" stroke-linecap="butt" d="m363.33633 32.360256l18.834625 0l0 18.834648l-18.834625 0z" fill-rule="evenodd"/><path fill="#000000" fill-opacity="0.0" d="m363.33633 41.77758l-21.291351 0" fill-rule="evenodd"/><path stroke="#000000" stroke-width="1.0" stroke-linejoin="round" stroke-linecap="butt" d="m363.33633 41.77758l-15.291351 0" fill-rule="evenodd"/><path fill="#000000" stroke="#000000" stroke-width="1.0" stroke-linecap="butt" d="m348.04498 40.125847l-4.538086 1.6517334l4.538086 1.6517334z" fill-rule="evenodd"/><path fill="#d9d9d9" d="m2.1972213 115.097786l18.834644 0l0 18.834648l-18.834644 0z" fill-rule="evenodd"/><path stroke="#000000" stroke-width="1.0" stroke-linejoin="round" stroke-linecap="butt" d="m2.1972213 115.097786l18.834644 0l0 18.834648l-18.834644 0z" fill-rule="evenodd"/><path fill="#d9d9d9" d="m42.333706 115.097786l18.834644 0l0 18.834648l-18.834644 0z" fill-rule="evenodd"/><path stroke="#000000" stroke-width="1.0" stroke-linejoin="round" stroke-linecap="butt" d="m42.333706 115.097786l18.834644 0l0 18.834648l-18.834644 0z" fill-rule="evenodd"/><path fill="#000000" fill-opacity="0.0" d="m42.333706 124.515114l-21.29134 0" fill-rule="evenodd"/><path stroke="#000000" stroke-width="1.0" stroke-linejoin="round" stroke-linecap="butt" d="m42.333706 124.515114l-15.291342 0" fill-rule="evenodd"/><path fill="#000000" stroke="#000000" stroke-width="1.0" stroke-linecap="butt" d="m27.042364 122.86338l-4.5380974 1.6517334l4.5380974 1.6517334z" fill-rule="evenodd"/><path fill="#d9d9d9" d="m82.45969 115.097786l18.834648 0l0 18.834648l-18.834648 0z" fill-rule="evenodd"/><path stroke="#000000" stroke-width="1.0" stroke-linejoin="round" stroke-linecap="butt" d="m82.45969 115.097786l18.834648 0l0 18.834648l-18.834648 0z" fill-rule="evenodd"/><path fill="#000000" fill-opacity="0.0" d="m82.45969 124.515114l-21.291336 0" fill-rule="evenodd"/><path stroke="#000000" stroke-width="1.0" stroke-linejoin="round" stroke-linecap="butt" d="m82.45969 124.515114l-15.291336 0" fill-rule="evenodd"/><path fill="#000000" stroke="#000000" stroke-width="1.0" stroke-linecap="butt" d="m67.16835 122.86338l-4.538101 1.6517334l4.538101 1.6517334z" fill-rule="evenodd"/><path fill="#d9d9d9" d="m122.58567 115.097786l18.834648 0l0 18.834648l-18.834648 0z" fill-rule="evenodd"/><path stroke="#000000" stroke-width="1.0" stroke-linejoin="round" stroke-linecap="butt" d="m122.58567 115.097786l18.834648 0l0 18.834648l-18.834648 0z" fill-rule="evenodd"/><path fill="#000000" fill-opacity="0.0" d="m122.58567 124.515114l-21.291336 0" fill-rule="evenodd"/><path stroke="#000000" stroke-width="1.0" stroke-linejoin="round" stroke-linecap="butt" d="m122.58567 124.515114l-15.291336 0" fill-rule="evenodd"/><path fill="#000000" stroke="#000000" stroke-width="1.0" stroke-linecap="butt" d="m107.294334 122.86338l-4.538101 1.6517334l4.538101 1.6517334z" fill-rule="evenodd"/><path fill="#d9d9d9" d="m162.71165 115.097786l18.83464 0l0 18.834648l-18.83464 0z" fill-rule="evenodd"/><path stroke="#000000" stroke-width="1.0" stroke-linejoin="round" stroke-linecap="butt" d="m162.71165 115.097786l18.83464 0l0 18.834648l-18.83464 0z" fill-rule="evenodd"/><path fill="#000000" fill-opacity="0.0" d="m162.71165 124.515114l-21.291336 0" fill-rule="evenodd"/><path stroke="#000000" stroke-width="1.0" stroke-linejoin="round" stroke-linecap="butt" d="m162.71165 124.515114l-15.291336 0" fill-rule="evenodd"/><path fill="#000000" stroke="#000000" stroke-width="1.0" stroke-linecap="butt" d="m147.42032 122.86338l-4.538101 1.6517334l4.538101 1.6517334z" fill-rule="evenodd"/><path fill="#d9d9d9" d="m202.83765 115.097786l18.83464 0l0 18.834648l-18.83464 0z" fill-rule="evenodd"/><path stroke="#000000" stroke-width="1.0" stroke-linejoin="round" stroke-linecap="butt" d="m202.83765 115.097786l18.83464 0l0 18.834648l-18.83464 0z" fill-rule="evenodd"/><path fill="#000000" fill-opacity="0.0" d="m202.83765 124.515114l-21.291351 0" fill-rule="evenodd"/><path stroke="#000000" stroke-width="1.0" stroke-linejoin="round" stroke-linecap="butt" d="m202.83765 124.515114l-15.291351 0" fill-rule="evenodd"/><path fill="#000000" stroke="#000000" stroke-width="1.0" stroke-linecap="butt" d="m187.5463 122.86338l-4.538086 1.6517334l4.538086 1.6517334z" fill-rule="evenodd"/><path fill="#ffffff" d="m242.96362 115.097786l18.834656 0l0 18.834648l-18.834656 0z" fill-rule="evenodd"/><path stroke="#000000" stroke-width="1.0" stroke-linejoin="round" stroke-linecap="butt" d="m242.96362 115.097786l18.834656 0l0 18.834648l-18.834656 0z" fill-rule="evenodd"/><path fill="#000000" fill-opacity="0.0" d="m242.96362 124.515114l-21.291336 0" fill-rule="evenodd"/><path stroke="#000000" stroke-width="1.0" stroke-linejoin="round" stroke-linecap="butt" d="m242.96362 124.515114l-15.291336 0" fill-rule="evenodd"/><path fill="#000000" stroke="#000000" stroke-width="1.0" stroke-linecap="butt" d="m227.67229 122.86338l-4.538101 1.6517334l4.538101 1.6517334z" fill-rule="evenodd"/><path fill="#d9d9d9" d="m283.0896 115.097786l18.834656 0l0 18.834648l-18.834656 0z" fill-rule="evenodd"/><path stroke="#000000" stroke-width="1.0" stroke-linejoin="round" stroke-linecap="butt" d="m283.0896 115.097786l18.834656 0l0 18.834648l-18.834656 0z" fill-rule="evenodd"/><path fill="#000000" fill-opacity="0.0" d="m283.0896 124.515114l-21.29132 0" fill-rule="evenodd"/><path stroke="#000000" stroke-width="1.0" stroke-linejoin="round" stroke-linecap="butt" d="m283.0896 124.515114l-15.291321 0" fill-rule="evenodd"/><path fill="#000000" stroke="#000000" stroke-width="1.0" stroke-linecap="butt" d="m267.79828 122.86338l-4.5381165 1.6517334l4.5381165 1.6517334z" fill-rule="evenodd"/><path fill="#d9d9d9" d="m323.2156 115.097786l18.834625 0l0 18.834648l-18.834625 0z" fill-rule="evenodd"/><path stroke="#000000" stroke-width="1.0" stroke-linejoin="round" stroke-linecap="butt" d="m323.2156 115.097786l18.834625 0l0 18.834648l-18.834625 0z" fill-rule="evenodd"/><path fill="#000000" fill-opacity="0.0" d="m323.2156 124.515114l-21.291351 0" fill-rule="evenodd"/><path stroke="#000000" stroke-width="1.0" stroke-linejoin="round" stroke-linecap="butt" d="m323.2156 124.515114l-15.291351 0" fill-rule="evenodd"/><path fill="#000000" stroke="#000000" stroke-width="1.0" stroke-linecap="butt" d="m307.92426 122.86338l-4.538086 1.6517334l4.538086 1.6517334z" fill-rule="evenodd"/><path fill="#d9d9d9" d="m363.34158 115.097786l18.834656 0l0 18.834648l-18.834656 0z" fill-rule="evenodd"/><path stroke="#000000" stroke-width="1.0" stroke-linejoin="round" stroke-linecap="butt" d="m363.34158 115.097786l18.834656 0l0 18.834648l-18.834656 0z" fill-rule="evenodd"/><path fill="#000000" fill-opacity="0.0" d="m363.34158 124.515114l-21.291351 0" fill-rule="evenodd"/><path stroke="#000000" stroke-width="1.0" stroke-linejoin="round" stroke-linecap="butt" d="m363.34158 124.515114l-15.291351 0" fill-rule="evenodd"/><path fill="#000000" stroke="#000000" stroke-width="1.0" stroke-linecap="butt" d="m348.05023 122.86338l-4.538086 1.6517334l4.538086 1.6517334z" fill-rule="evenodd"/><path fill="#d9d9d9" d="m403.46756 115.097786l18.834656 0l0 18.834648l-18.834656 0z" fill-rule="evenodd"/><path stroke="#000000" stroke-width="1.0" stroke-linejoin="round" stroke-linecap="butt" d="m403.46756 115.097786l18.834656 0l0 18.834648l-18.834656 0z" fill-rule="evenodd"/><path fill="#000000" fill-opacity="0.0" d="m403.46756 124.515114l-21.29132 0" fill-rule="evenodd"/><path stroke="#000000" stroke-width="1.0" stroke-linejoin="round" stroke-linecap="butt" d="m403.46756 124.515114l-15.291351 0" fill-rule="evenodd"/><path fill="#000000" stroke="#000000" stroke-width="1.0" stroke-linecap="butt" d="m388.1762 122.86338l-4.538086 1.6517334l4.538086 1.6517334z" fill-rule="evenodd"/><path fill="#d9d9d9" d="m403.33633 32.360256l18.834625 0l0 18.834648l-18.834625 0z" fill-rule="evenodd"/><path stroke="#000000" stroke-width="1.0" stroke-linejoin="round" stroke-linecap="butt" d="m403.33633 32.360256l18.834625 0l0 18.834648l-18.834625 0z" fill-rule="evenodd"/><path fill="#000000" fill-opacity="0.0" d="m403.33633 41.77758l-21.165375 0" fill-rule="evenodd"/><path stroke="#000000" stroke-width="1.0" stroke-linejoin="round" stroke-linecap="butt" d="m403.33633 41.77758l-15.165375 0" fill-rule="evenodd"/><path fill="#000000" stroke="#000000" stroke-width="1.0" stroke-linecap="butt" d="m388.17096 40.125847l-4.538086 1.6517334l4.538086 1.6517334z" fill-rule="evenodd"/><path fill="#000000" fill-opacity="0.0" d="m51.745777 51.194904c0 15.975735 50.157482 23.963284 100.31497 31.951473c50.15747 7.9881897 100.31496 15.97702 100.31496 31.95404" fill-rule="evenodd"/><path stroke="#000000" stroke-width="1.0" stroke-linejoin="round" stroke-linecap="butt" d="m51.745777 51.1949c0 15.975739 50.157482 23.963295 100.31496 31.951485c25.07875 3.9940872 50.157486 7.9883423 68.96654 12.981201c9.404526 2.4964294 17.241638 5.2425156 22.727615 8.363045c2.742981 1.5602722 4.8981934 3.214157 6.3676605 4.977249l0.043655396 0.05417633" fill-rule="evenodd"/><path fill="#000000" stroke="#000000" stroke-width="1.0" stroke-linecap="butt" d="m248.63054 110.13031l3.2068176 3.6109314l-0.13549805 -4.8274384z" fill-rule="evenodd"/></g></svg>