<?xml version="1.0" standalone="yes"?>

<svg version="1.1" viewBox="0.0 0.0 823.1049868766404 512.4383202099738" fill="none" stroke="none" stroke-linecap="square" stroke-miterlimit="10" xmlns="http://www.w3.org/2000/svg" xmlns:xlink="http://www.w3.org/1999/xlink"><clipPath id="p.0"><path d="m0 0l823.105 0l0 512.4383l-823.105 0l0 -512.4383z" clip-rule="nonzero"></path></clipPath><g clip-path="url(#p.0)"><path fill="#ffffff" d="m0 0l823.105 0l0 512.4383l-823.105 0z" fill-rule="evenodd"></path><path fill="#ffffff" d="m193.11658 273.49243l19.685043 0l0 20.283478l-19.685043 0z" fill-rule="evenodd"></path><path stroke="#000000" stroke-width="2.0" stroke-linejoin="round" stroke-linecap="butt" d="m193.11658 273.49243l19.685043 0l0 20.283478l-19.685043 0z" fill-rule="evenodd"></path><path fill="#ffffff" d="m265.17667 162.27318l19.685028 0l0 20.283463l-19.685028 0z" fill-rule="evenodd"></path><path stroke="#000000" stroke-width="2.0" stroke-linejoin="round" stroke-linecap="butt" d="m265.17667 162.27318l19.685028 0l0 20.283463l-19.685028 0z" fill-rule="evenodd"></path><path fill="#ffffff" d="m392.93167 375.3332l19.685028 0l0 20.283478l-19.685028 0z" fill-rule="evenodd"></path><path stroke="#000000" stroke-width="2.0" stroke-linejoin="round" stroke-linecap="butt" d="m392.93167 375.3332l19.685028 0l0 20.283478l-19.685028 0z" fill-rule="evenodd"></path><path fill="#000000" fill-opacity="0.0" d="m202.95909 273.49243l62.204727 -101.07085" fill-rule="evenodd"></path><path stroke="#000000" stroke-width="2.0" stroke-linejoin="round" stroke-linecap="butt" d="m202.95909 273.49243l62.204727 -101.07085" fill-rule="evenodd"></path><path fill="#ffffff" d="m497.6423 162.27318l19.685028 0l0 20.283463l-19.685028 0z" fill-rule="evenodd"></path><path stroke="#000000" stroke-width="2.0" stroke-linejoin="round" stroke-linecap="butt" d="m497.6423 162.27318l19.685028 0l0 20.283463l-19.685028 0z" fill-rule="evenodd"></path><path fill="#ffffff" d="m627.4775 162.27318l19.685059 0l0 20.283463l-19.685059 0z" fill-rule="evenodd"></path><path stroke="#000000" stroke-width="2.0" stroke-linejoin="round" stroke-linecap="butt" d="m627.4775 162.27318l19.685059 0l0 20.283463l-19.685059 0z" fill-rule="evenodd"></path><path fill="#ffffff" d="m697.4913 162.27318l19.685059 0l0 20.283463l-19.685059 0z" fill-rule="evenodd"></path><path stroke="#000000" stroke-width="2.0" stroke-linejoin="round" stroke-linecap="butt" d="m697.4913 162.27318l19.685059 0l0 20.283463l-19.685059 0z" fill-rule="evenodd"></path><path fill="#ffffff" d="m485.9699 375.33432l19.685028 0l0 20.283478l-19.685028 0z" fill-rule="evenodd"></path><path stroke="#000000" stroke-width="2.0" stroke-linejoin="round" stroke-linecap="butt" d="m485.9699 375.33432l19.685028 0l0 20.283478l-19.685028 0z" fill-rule="evenodd"></path><path fill="#ffffff" d="m623.711 375.33432l19.684998 0l0 20.283478l-19.684998 0z" fill-rule="evenodd"></path><path stroke="#000000" stroke-width="2.0" stroke-linejoin="round" stroke-linecap="butt" d="m623.711 375.33432l19.684998 0l0 20.283478l-19.684998 0z" fill-rule="evenodd"></path><path fill="#000000" fill-opacity="0.0" d="m284.8617 172.4149l70.33072 0.47244263" fill-rule="evenodd"></path><path stroke="#000000" stroke-width="2.0" stroke-linejoin="round" stroke-linecap="butt" stroke-dasharray="8.0,6.0" d="m284.8617 172.4149l70.33072 0.47244263" fill-rule="evenodd"></path><path fill="#000000" fill-opacity="0.0" d="m517.32733 172.4149l70.17322 0" fill-rule="evenodd"></path><path stroke="#000000" stroke-width="2.0" stroke-linejoin="round" stroke-linecap="butt" stroke-dasharray="8.0,6.0" d="m517.32733 172.4149l70.17322 0" fill-rule="evenodd"></path><path fill="#000000" fill-opacity="0.0" d="m647.16254 172.4149l50.33069 0" fill-rule="evenodd"></path><path stroke="#000000" stroke-width="2.0" stroke-linejoin="round" stroke-linecap="butt" stroke-dasharray="8.0,6.0" d="m647.16254 172.4149l50.33069 0" fill-rule="evenodd"></path><path fill="#000000" fill-opacity="0.0" d="m412.6167 385.47495l73.35434 0" fill-rule="evenodd"></path><path stroke="#000000" stroke-width="2.0" stroke-linejoin="round" stroke-linecap="butt" stroke-dasharray="8.0,6.0" d="m412.6167 385.47495l73.35434 0" fill-rule="evenodd"></path><path fill="#000000" fill-opacity="0.0" d="m505.65494 385.47604l118.04727 0" fill-rule="evenodd"></path><path stroke="#000000" stroke-width="2.0" stroke-linejoin="round" stroke-linecap="butt" stroke-dasharray="8.0,6.0" d="m505.65494 385.47604l118.04727 0" fill-rule="evenodd"></path><path fill="#ffffff" d="m75.62839 273.49243l19.685036 0l0 20.283478l-19.685036 0z" fill-rule="evenodd"></path><path stroke="#000000" stroke-width="2.0" stroke-linejoin="round" stroke-linecap="butt" d="m75.62839 273.49243l19.685036 0l0 20.283478l-19.685036 0z" fill-rule="evenodd"></path><path fill="#000000" fill-opacity="0.0" d="m95.31342 283.6342l97.79528 0" fill-rule="evenodd"></path><path stroke="#000000" stroke-width="2.0" stroke-linejoin="round" stroke-linecap="butt" stroke-dasharray="8.0,6.0" d="m95.31342 283.6342l97.79528 0" fill-rule="evenodd"></path><path fill="#000000" fill-opacity="0.0" d="m177.27821 226.3777l19.685043 0l0 38.488174l-19.685043 0z" fill-rule="evenodd"></path><path fill="#000000" d="m188.41884 258.4177l0 -14.359375q0 -0.8125 -0.421875 -1.125q-0.421875 -0.328125 -1.375 -0.375l0.0625 -0.765625q0.984375 -0.171875 3.4375 -0.890625l0.5 0.265625l0 6.734375q1.03125 -1.796875 2.96875 -1.796875q2.546875 0 3.71875 1.65625q1.1875 1.65625 1.1875 4.5q0 2.84375 -1.390625 4.59375q-1.390625 1.75 -4.015625 1.75q-1.609375 0 -2.921875 -1.265625q-0.359375 0.53125 -0.53125 1.078125l-1.21875 0zm2.203125 -5.296875l0 3.09375q1.390625 1.296875 2.4375 1.296875q1.0625 0 1.6875 -0.4375q0.625 -0.453125 0.921875 -1.296875q0.46875 -1.390625 0.46875 -3.015625q0 -1.640625 -0.078125 -2.40625q-0.0625 -0.765625 -0.296875 -1.5625q-0.484375 -1.578125 -2.171875 -1.578125q-1.890625 0 -2.484375 1.890625q-0.484375 1.5625 -0.484375 4.015625z" fill-rule="nonzero"></path><path fill="#000000" fill-opacity="0.0" d="m484.99475 115.84064l47.559082 0l0 38.48819l-47.559082 0z" fill-rule="evenodd"></path><path fill="#000000" d="m502.23892 147.88063l0 -14.359375q0 -0.8125 -0.421875 -1.125q-0.421875 -0.328125 -1.375 -0.375l0.0625 -0.765625q0.984375 -0.171875 3.4375 -0.890625l0.5 0.265625l0 6.734375q1.03125 -1.796875 2.96875 -1.796875q2.546875 0 3.71875 1.65625q1.1875305 1.65625 1.1875305 4.5q0 2.84375 -1.3906555 4.59375q-1.390625 1.75 -4.015625 1.75q-1.609375 0 -2.921875 -1.265625q-0.359375 0.53125 -0.53125 1.078125l-1.21875 0zm2.203125 -5.296875l0 3.09375q1.390625 1.296875 2.4375 1.296875q1.0625 0 1.6875 -0.4375q0.625 -0.453125 0.921875 -1.296875q0.46875 -1.390625 0.46875 -3.015625q0 -1.640625 -0.078125 -2.40625q-0.0625 -0.765625 -0.296875 -1.5625q-0.484375 -1.578125 -2.171875 -1.578125q-1.890625 0 -2.484375 1.890625q-0.484375 1.5625 -0.484375 4.015625zm11.090607 -9.21875q0 -0.40625 -0.203125 -0.640625q-0.203125 -0.25 -0.5 -0.25q-0.28125 0 -0.5 0.125q-0.3125 -0.3125 -0.3125 -0.890625q0 -0.578125 0.40625 -0.921875q0.40625 -0.359375 1.0625 -0.359375q0.671875 0 1.078125 0.515625q0.40625 0.5 0.40625 1.3125q0 1.96875 -1.984375 3.3125l-0.515625 -0.59375q1.0625 -0.75 1.0625 -1.609375z" fill-rule="nonzero"></path><path fill="#000000" fill-opacity="0.0" d="m267.4173 104.55643c0 -5.4184723 0.73205566 -9.81102 1.6351013 -9.81102l223.1235 0c0.90301514 0 1.6351013 -4.3925476 1.6351013 -9.811028l0 0c0 5.41848 0.73205566 9.811028 1.6351013 9.811028l223.12347 0l0 0c0.9030762 0 1.6351318 4.3925476 1.6351318 9.81102z" fill-rule="evenodd"></path><path fill="#000000" fill-opacity="0.0" d="m267.4173 104.55643c0 -5.4184723 0.73205566 -9.81102 1.6351013 -9.81102l223.1235 0c0.90301514 0 1.6351013 -4.3925476 1.6351013 -9.811028l0 0c0 5.41848 0.73205566 9.811028 1.6351013 9.811028l223.12347 0l0 0c0.9030762 0 1.6351318 4.3925476 1.6351318 9.81102" fill-rule="evenodd"></path><path stroke="#000000" stroke-width="2.0" stroke-linejoin="round" stroke-linecap="butt" d="m267.4173 104.55643c0 -5.4184723 0.73205566 -9.81102 1.6351013 -9.81102l223.1235 0c0.90301514 0 1.6351013 -4.3925476 1.6351013 -9.811028l0 0c0 5.41848 0.73205566 9.811028 1.6351013 9.811028l223.12347 0l0 0c0.9030762 0 1.6351318 4.3925476 1.6351318 9.81102" fill-rule="evenodd"></path><path fill="#000000" fill-opacity="0.0" d="m447.37213 34.545933l118.078735 0l0 52.188976l-118.078735 0z" fill-rule="evenodd"></path><path fill="#000000" d="m458.77838 69.49218l0 -20.874996l1.65625 0l0 20.874996l-1.65625 0z" fill-rule="nonzero"></path><path fill="#000000" d="m472.0625 55.85156l2.0 0l-1.21875 5.421875q-0.34375 1.546875 -0.46875 1.90625q0.46875 2.1562462 1.359375 2.1562462q1.046875 0 1.078125 -1.4531212l0.421875 0q-0.03125 1.3593712 -0.5 2.2031212q-0.453125 0.828125 -1.203125 0.828125q-0.625 0 -0.9375 -0.5q-0.296875 -0.515625 -0.640625 -2.0625q-1.21875 2.5625 -3.984375 2.5625q-1.890625 0 -3.015625 -1.46875q-1.109375 -1.4687462 -1.109375 -4.218746q0 -2.6875 1.21875 -4.1875q1.21875 -1.5 2.9375 -1.5q1.203125 0 1.96875 0.859375q0.78125 0.84375 1.375 2.78125l0.71875 -3.328125zm-1.03125 4.59375q-0.546875 -1.890625 -1.234375 -2.953125q-0.671875 -1.0625 -1.625 -1.0625q-2.140625 0 -2.140625 5.015625q0 4.765621 2.046875 4.765621q1.78125 0 2.640625 -4.203121l0.3125 -1.5625z" fill-rule="nonzero"></path><path fill="#000000" d="m475.66797 76.976555q-0.53125 -0.296875 -0.53125 -0.828125q0 -0.625 0.65625 -1.953125q0.671875 -1.328125 1.765625 -3.0625q-0.96875 -0.078125 -1.71875 -0.078125l-0.5625 0q0.296875 -0.828125 1.65625 -0.828125q0.4375 0 1.15625 0.109375q1.234375 -1.859375 2.5 -3.5q1.28125 -1.640625 2.015625 -2.328125q0.453125 -0.4375 0.765625 -0.4375q0.328125 0 0.84375 0.5q-0.3125 0.265625 -0.921875 2.078125q-0.609375 1.8125 -1.09375 3.96875q-0.484375 2.15625 -0.484375 3.46875q0 0.640625 0.140625 0.96875q0.140625 0.3125 0.453125 0.3125q0.890625 0 2.109375 -2.375l0.15625 0.15625q-0.5 1.3125 -1.25 2.125q-0.734375 0.796875 -1.515625 0.796875q-0.640625 0 -0.953125 -0.5625q-0.296875 -0.578125 -0.296875 -1.578125q0 -1.03125 0.265625 -2.390625q-1.015625 -0.15625 -2.359375 -0.328125q-1.578125 2.890625 -2.796875 5.765625zm5.265625 -6.0q0.34375 -1.5 0.859375 -3.109375q0.53125 -1.625 1.0625 -2.796875q-0.71875 0.453125 -1.765625 1.890625q-1.046875 1.4375 -2.21875 3.515625q0.640625 0.140625 1.34375 0.328125l0.71875 0.171875z" fill-rule="nonzero"></path><path fill="#000000" d="m487.2806 69.49218l0 -20.874996l1.65625 0l0 20.874996l-1.65625 0z" fill-rule="nonzero"></path><path fill="#000000" d="m497.6992 52.07031l12.578125 5.34375l0 0.96875l-12.578125 5.3125l0 -1.1875l11.125 -4.609375l-11.125 -4.640625l0 -1.1875zm-0.015625 15.343746l12.609375 0l0 1.078125l-12.609375 0l0 -1.078125z" fill-rule="nonzero"></path><path fill="#000000" d="m519.25555 57.617184q0 -0.96875 -0.390625 -1.3125q-0.390625 -0.34375 -1.40625 -0.40625l0.078125 -0.765625q0.53125 -0.09375 3.171875 -0.859375l0.453125 0.234375l0.1875 1.34375q0.1875 -0.234375 0.484375 -0.515625q0.3125 -0.296875 1.0625 -0.671875q0.765625 -0.390625 1.53125 -0.390625q2.328125 0 3.3125 1.6875q1.671875 -1.6875 3.375 -1.6875q1.703125 0 2.796875 0.9375q1.09375 0.9375 1.09375 2.953125l0 6.843746q0.59375 0.453125 1.796875 0.6875l-0.09375 0.890625l-5.6875 0l0.078125 -0.890625q0.953125 -0.140625 1.703125 -0.6875l0 -6.921871q0 -2.5625 -1.953125 -2.5625q-0.859375 0 -1.625 0.640625q-0.75 0.625 -0.984375 1.375l0 7.468746q0.59375 0.453125 1.796875 0.6875l-0.09375 0.890625l-5.6875 0l0.078125 -0.890625q0.953125 -0.140625 1.703125 -0.6875l0 -6.921871q0 -2.5625 -1.953125 -2.5625q-0.859375 0 -1.625 0.640625q-0.75 0.625 -0.984375 1.375l0 7.468746q0.640625 0.46875 1.796875 0.6875l-0.09375 0.890625l-5.71875 0l0.09375 -0.9375q1.03125 -0.171875 1.703125 -0.640625l0 -7.390621z" fill-rule="nonzero"></path><path fill="#000000" fill-opacity="0.0" d="m390.98425 412.2257c0 6.453491 0.8718872 11.685059 1.9474182 11.685059l125.85318 0c1.0755615 0 1.9474487 5.2315674 1.9474487 11.685028l0 0c0 -6.4534607 0.8718872 -11.685028 1.9473877 -11.685028l125.85321 0l0 0c1.0755005 0 1.9473877 -5.2315674 1.9473877 -11.685059z" fill-rule="evenodd"></path><path fill="#000000" fill-opacity="0.0" d="m390.98425 412.2257c0 6.453491 0.8718872 11.685059 1.9474182 11.685059l125.85318 0c1.0755615 0 1.9474487 5.2315674 1.9474487 11.685028l0 0c0 -6.4534607 0.8718872 -11.685028 1.9473877 -11.685028l125.85321 0l0 0c1.0755005 0 1.9473877 -5.2315674 1.9473877 -11.685059" fill-rule="evenodd"></path><path stroke="#000000" stroke-width="2.0" stroke-linejoin="round" stroke-linecap="butt" d="m390.98425 412.2257c0 6.453491 0.8718872 11.685059 1.9474182 11.685059l125.85318 0c1.0755615 0 1.9474487 5.2315674 1.9474487 11.685028l0 0c0 -6.4534607 0.8718872 -11.685028 1.9473877 -11.685028l125.85321 0l0 0c1.0755005 0 1.9473877 -5.2315674 1.9473877 -11.685059" fill-rule="evenodd"></path><path fill="#000000" fill-opacity="0.0" d="m496.12292 430.32907l59.811035 0l0 52.188965l-59.811035 0z" fill-rule="evenodd"></path><path fill="#000000" d="m514.3573 451.6347l2.0 0l-1.21875 5.421875q-0.34375 1.546875 -0.46875 1.90625q0.46875 2.15625 1.359375 2.15625q1.046875 0 1.078125 -1.453125l0.421875 0q-0.03125 1.359375 -0.5 2.203125q-0.453125 0.828125 -1.203125 0.828125q-0.625 0 -0.9375 -0.5q-0.296875 -0.515625 -0.640625 -2.0625q-1.21875 2.5625 -3.984375 2.5625q-1.890625 0 -3.015625 -1.46875q-1.109375 -1.46875 -1.109375 -4.21875q0 -2.6875 1.21875 -4.1875q1.21875 -1.5 2.9375 -1.5q1.203125 0 1.96875 0.859375q0.78125 0.84375 1.375 2.78125l0.71875 -3.328125zm-1.03125 4.59375q-0.546875 -1.890625 -1.234375 -2.953125q-0.671875 -1.0625 -1.625 -1.0625q-2.140625 0 -2.140625 5.015625q0 4.765625 2.046875 4.765625q1.78125 0 2.640625 -4.203125l0.3125 -1.5625z" fill-rule="nonzero"></path><path fill="#000000" d="m522.96277 460.55658q3.890625 0 3.890625 2.703125q0 1.796875 -1.890625 2.34375q1.109375 0.34375 1.71875 1.046875q0.625 0.6875 0.625 1.65625q0 1.421875 -1.03125 2.25q-1.03125 0.8125 -2.859375 0.8125l-5.03125 0l0.09375 -0.640625q1.0 -0.109375 1.5625 -0.453125l0 -8.640625q-0.5625 -0.328125 -1.65625 -0.4375l0.078125 -0.640625l4.5 0zm-1.40625 9.96875l1.859375 0q1.140625 0 1.734375 -0.5625q0.59375 -0.5625 0.59375 -1.625q0 -1.078125 -0.703125 -1.65625q-0.6875 -0.59375 -2.0625 -0.59375l-1.421875 0l0 4.4375zm0 -5.28125l1.4375 0q1.21875 0 1.78125 -0.484375q0.5625 -0.484375 0.5625 -1.46875q0 -1.0 -0.578125 -1.46875q-0.5625 -0.46875 -1.8125 -0.46875q-0.484375 0 -1.390625 0.046875l0 3.84375z" fill-rule="nonzero"></path><path fill="#000000" fill-opacity="0.0" d="m19.566929 227.41132l122.36221 0l0 28.440948l-122.36221 0z" fill-rule="evenodd"></path><path fill="#000000" d="m42.63002 251.46695q0 -4.328125 4.75 -4.328125q1.71875 0 2.859375 0.625q0.953125 -0.28125 0.953125 -1.015625q0 -0.5625 -0.71875 -0.921875q0 -0.390625 0.328125 -0.625q0.34375 -0.25 0.90625 -0.25q0.5625 0 0.921875 0.359375q0.359375 0.34375 0.359375 0.921875q0 1.578125 -1.828125 2.25q0.96875 1.109375 0.96875 3.0q0 1.875 -1.28125 3.0q-1.265625 1.125 -3.46875 1.125l-0.359375 0l-1.328125 1.609375q0.03125 0.578125 0.46875 0.796875q0.453125 0.21875 1.40625 0.234375l1.078125 0q2.40625 0 3.515625 0.921875q1.125 0.90625 1.125 2.328125q0 3.59375 -5.484375 3.59375q-2.734375 0 -4.109375 -0.875q-1.375 -0.875 -1.375 -2.28125q0 -1.40625 0.421875 -2.015625q0.4375 -0.609375 1.5625 -1.234375q-0.578125 -0.625 -0.578125 -1.703125l2.140625 -1.515625q-1.53125 -0.359375 -2.390625 -1.40625q-0.84375 -1.0625 -0.84375 -2.59375zm2.90625 2.34375q0.5625 0.75 1.828125 0.75q1.28125 0 1.84375 -0.75q0.5625 -0.75 0.5625 -2.421875q0 -1.6875 -0.5625 -2.453125q-0.5625 -0.765625 -1.84375 -0.765625q-1.265625 0 -1.828125 0.765625q-0.5625 0.765625 -0.5625 2.453125q0 1.671875 0.5625 2.421875zm2.515625 5.640625l-2.21875 0q-1.171875 0.796875 -1.171875 2.046875q0 2.53125 3.125 2.53125q3.140625 0 3.140625 -2.53125q0 -2.046875 -2.875 -2.046875zm9.074844 -6.265625l0 0.390625q0 2.96875 0.78125 4.0q0.75 0.96875 2.4375 0.96875q1.6875 0 2.890625 -1.421875l0.8125 0.8125q-1.453125 1.703125 -3.921875 1.703125q-2.90625 0 -4.140625 -1.609375q-1.234375 -1.609375 -1.234375 -4.609375q0 -3.0 1.34375 -4.640625q1.34375 -1.640625 3.875 -1.640625q2.546875 0 3.546875 1.34375q1.015625 1.34375 1.09375 4.015625l-0.53125 0.6875l-6.953125 0zm2.796875 -4.984375q-2.734375 0 -2.796875 4.03125l5.15625 -0.203125q0 -2.015625 -0.515625 -2.921875q-0.5 -0.90625 -1.84375 -0.90625zm8.070221 2.28125q0 -0.96875 -0.40625 -1.3125q-0.390625 -0.34375 -1.390625 -0.40625l0.0625 -0.765625q0.53125 -0.09375 3.171875 -0.859375l0.453125 0.234375l0.25 1.609375q1.34375 -1.84375 3.3125 -1.84375q1.96875 0 3.015625 0.953125q1.0625 0.9375 1.0625 2.625l0 7.15625q0.59375 0.453125 1.796875 0.6875l-0.09375 0.890625l-5.6875 0l0.0625 -0.890625q0.96875 -0.140625 1.703125 -0.6875l0 -6.921875q0 -2.5625 -2.203125 -2.5625q-0.890625 0 -1.703125 0.609375q-0.8125 0.59375 -1.203125 1.546875l0 7.328125q0.65625 0.46875 1.796875 0.6875l-0.09375 0.890625l-5.703125 0l0.09375 -0.9375q1.03125 -0.171875 1.703125 -0.640625l0 -7.390625zm15.052826 2.703125l0 0.390625q0 2.96875 0.7812576 4.0q0.75 0.96875 2.4375 0.96875q1.6875 0 2.890625 -1.421875l0.8125 0.8125q-1.453125 1.703125 -3.921875 1.703125q-2.9062576 0 -4.1406326 -1.609375q-1.234375 -1.609375 -1.234375 -4.609375q0 -3.0 1.34375 -4.640625q1.34375 -1.640625 3.8750076 -1.640625q2.546875 0 3.546875 1.34375q1.015625 1.34375 1.09375 4.015625l-0.53125 0.6875l-6.9531326 0zm2.7968826 -4.984375q-2.7343826 0 -2.7968826 4.03125l5.1562576 -0.203125q0 -2.015625 -0.515625 -2.921875q-0.5 -0.90625 -1.84375 -0.90625zm8.929596 10.0q0.890625 0.265625 1.921875 0.265625q1.03125 0 1.671875 -0.578125q0.65625 -0.59375 0.65625 -1.390625q0 -0.796875 -0.46875 -1.28125q-0.46875 -0.5 -1.171875 -0.71875q-0.6875 -0.234375 -1.515625 -0.546875q-0.828125 -0.3125 -1.53125 -0.640625q-0.6875 -0.34375 -1.15625 -1.09375q-0.46875 -0.75 -0.46875 -1.84375q0 -1.453125 1.15625 -2.328125q1.171875 -0.875 2.953125 -0.875q1.796875 0 2.9375 0.734375q1.15625 0.71875 1.15625 1.78125q0 1.34375 -1.1875 1.34375q-0.921875 0 -1.375 -0.703125q0.40625 -0.328125 0.40625 -0.890625q0 -0.5625 -0.5625 -0.890625q-0.5625 -0.34375 -1.46875 -0.34375q-0.890625 0 -1.484375 0.46875q-0.578125 0.46875 -0.578125 1.3125q0 0.828125 0.65625 1.390625q0.65625 0.546875 1.59375 0.84375q0.9375 0.296875 1.875 0.65625q0.953125 0.34375 1.609375 1.109375q0.671875 0.765625 0.671875 1.9375q0 1.75 -1.203125 2.71875q-1.203125 0.953125 -3.390625 0.953125q-0.890625 0 -2.0625 -0.296875q-1.15625 -0.296875 -1.71875 -0.6875l0 -3.1875l1.390625 -0.171875q0.15625 1.96875 0.6875 2.953125zm10.130341 -7.78125q0 -0.953125 -0.40625 -1.296875q-0.390625 -0.359375 -1.390625 -0.40625l0.0625 -0.765625q0.984375 -0.15625 3.4375 -0.890625l0.5 0.265625l0 10.546875q0.65625 0.46875 1.8125 0.6875l-0.109375 0.890625l-5.703125 0l0.09375 -0.9375q1.03125 -0.171875 1.703125 -0.640625l0 -7.453125zm2.328125 -6.703125q0 1.5 -1.359375 1.5q-1.359375 0 -1.359375 -1.5q0 -1.5 1.359375 -1.5q1.359375 0 1.359375 1.5zm5.6134796 14.484375q0.890625 0.265625 1.921875 0.265625q1.03125 0 1.671875 -0.578125q0.65625 -0.59375 0.65625 -1.390625q0 -0.796875 -0.46875 -1.28125q-0.46875 -0.5 -1.171875 -0.71875q-0.6875 -0.234375 -1.515625 -0.546875q-0.828125 -0.3125 -1.53125 -0.640625q-0.6875 -0.34375 -1.15625 -1.09375q-0.46875 -0.75 -0.46875 -1.84375q0 -1.453125 1.15625 -2.328125q1.171875 -0.875 2.953125 -0.875q1.796875 0 2.9375 0.734375q1.15625 0.71875 1.15625 1.78125q0 1.34375 -1.1875 1.34375q-0.921875 0 -1.375 -0.703125q0.40625 -0.328125 0.40625 -0.890625q0 -0.5625 -0.5625 -0.890625q-0.5625 -0.34375 -1.46875 -0.34375q-0.890625 0 -1.484375 0.46875q-0.578125 0.46875 -0.578125 1.3125q0 0.828125 0.65625 1.390625q0.65625 0.546875 1.59375 0.84375q0.9375 0.296875 1.875 0.65625q0.953125 0.34375 1.609375 1.109375q0.671875 0.765625 0.671875 1.9375q0 1.75 -1.203125 2.71875q-1.203125 0.953125 -3.390625 0.953125q-0.890625 0 -2.0625 -0.296875q-1.15625 -0.296875 -1.71875 -0.6875l0 -3.1875l1.390625 -0.171875q0.15625 1.96875 0.6875 2.953125z" fill-rule="nonzero"></path><path fill="#000000" fill-opacity="0.0" d="m573.1211 224.24913l0 13.070877" fill-rule="evenodd"></path><path stroke="#000000" stroke-width="2.0" stroke-linejoin="round" stroke-linecap="butt" d="m573.1211 224.24913l0 13.070877" fill-rule="evenodd"></path><path fill="#000000" fill-opacity="0.0" d="m383.3857 230.66261l189.73227 0" fill-rule="evenodd"></path><path stroke="#000000" stroke-width="2.0" stroke-linejoin="round" stroke-linecap="butt" d="m383.3857 230.66261l189.73227 0" fill-rule="evenodd"></path><path fill="#000000" fill-opacity="0.0" d="m383.94473 224.24913l0 13.070877" fill-rule="evenodd"></path><path stroke="#000000" stroke-width="2.0" stroke-linejoin="round" stroke-linecap="butt" d="m383.94473 224.24913l0 13.070877" fill-rule="evenodd"></path><path fill="#000000" fill-opacity="0.0" d="m448.84747 223.3856l59.811005 0l0 52.18898l-59.811005 0z" fill-rule="evenodd"></path><path fill="#000000" d="m470.5416 241.26935q0 -0.96875 -0.40625 -1.3125q-0.390625 -0.34375 -1.390625 -0.390625l0.0625 -0.765625q0.984375 -0.171875 3.4375 -0.890625l0.5 0.265625l0 10.09375l3.34375 -3.546875q0.5 -0.5 0.78125 -1.4375l3.46875 0l0.0625 0.765625q-1.75 0.078125 -2.75 1.125l-2.3125 2.375l3.765625 6.25q0.84375 0.515625 2.328125 0.734375l-0.09375 0.890625l-3.6875 0l-3.78125 -6.359375l-1.125 1.15625l0 3.625q0.65625 0.46875 1.796875 0.6875l-0.09375 0.890625l-5.703125 0l0.09375 -0.9375q1.03125 -0.171875 1.703125 -0.640625l0 -12.578125z" fill-rule="nonzero"></path><path fill="#000000" d="m481.88943 264.4256l0 -0.96875q2.875 -2.46875 3.953125 -3.921875q1.078125 -1.453125 1.078125 -2.765625q0 -1.96875 -1.75 -1.96875q-0.765625 0 -1.234375 0.453125q-0.453125 0.453125 -0.453125 1.0625q0 0.59375 0.34375 1.046875q-0.328125 0.375 -0.828125 0.375q-0.5 0 -0.796875 -0.296875q-0.296875 -0.3125 -0.296875 -0.96875q0 -0.96875 0.96875 -1.71875q0.96875 -0.765625 2.40625 -0.765625q1.4375 0 2.328125 0.796875q0.90625 0.78125 0.90625 2.125q0 1.328125 -1.109375 2.78125q-1.09375 1.453125 -3.703125 3.46875l5.234375 0l0 1.265625l-7.046875 0z" fill-rule="nonzero"></path><path fill="#000000" fill-opacity="0.0" d="m723.719 224.41542l0 13.070862" fill-rule="evenodd"></path><path stroke="#000000" stroke-width="2.0" stroke-linejoin="round" stroke-linecap="butt" d="m723.719 224.41542l0 13.070862" fill-rule="evenodd"></path><path fill="#000000" fill-opacity="0.0" d="m578.48035 230.82889l143.81708 0" fill-rule="evenodd"></path><path stroke="#000000" stroke-width="2.0" stroke-linejoin="round" stroke-linecap="butt" d="m578.48035 230.82889l143.81708 0" fill-rule="evenodd"></path><path fill="#000000" fill-opacity="0.0" d="m579.11597 224.41542l0 13.070862" fill-rule="evenodd"></path><path stroke="#000000" stroke-width="2.0" stroke-linejoin="round" stroke-linecap="butt" d="m579.11597 224.41542l0 13.070862" fill-rule="evenodd"></path><path fill="#000000" fill-opacity="0.0" d="m619.9256 225.25197l70.17328 0l0 52.18898l-70.17328 0z" fill-rule="evenodd"></path><path fill="#000000" d="m635.82654 255.60448q1.421875 0.56248474 2.875 0.56248474q1.453125 0 2.3125 -0.73435974q0.859375 -0.75 0.859375 -2.078125q0 -1.671875 -1.59375 -2.59375q-0.703125 -0.375 -1.5625 -0.703125q-0.84375 -0.34375 -1.703125 -0.734375q-0.84375 -0.390625 -1.546875 -0.890625q-1.609375 -1.125 -1.609375 -3.171875q0 -2.0625 1.390625 -3.21875q1.40625 -1.171875 3.625 -1.171875q2.21875 0 3.625 0.9375q1.421875 0.9375 1.421875 2.3125q0 1.625 -1.296875 1.625q-0.984375 0 -1.484375 -0.734375q0.546875 -0.515625 0.546875 -1.234375q0 -0.71875 -0.6875 -1.140625q-0.671875 -0.4375 -2.0 -0.4375q-1.3125 0 -2.125 0.625q-0.796875 0.625 -0.796875 1.625q0 0.984375 0.453125 1.59375q0.453125 0.59375 1.15625 0.984375q0.71875 0.375 1.59375 0.734375q0.875 0.34375 1.75 0.75q0.875 0.40625 1.578125 0.9375q0.71875 0.53125 1.171875 1.421875q0.453125 0.875 0.453125 2.046875q0 2.1875 -1.59375 3.3749847q-1.59375 1.1875 -4.265625 1.1875q-1.3125 0 -2.71875 -0.453125q-1.40625 -0.453125 -2.03125 -0.890625l0 -4.1718597l1.296875 -0.140625q0.28125 2.34375 0.90625 3.78125zm12.529846 2.1249847q0 -0.875 -0.734375 -0.875q-0.078125 0 -0.46875 0.09375q-0.3125 -0.296875 -0.3125 -0.875q0 -0.57810974 0.40625 -0.92185974q0.421875 -0.359375 1.078125 -0.359375q0.65625 0 1.0625 0.515625q0.40625 0.5 0.40625 1.3124847q0 2.453125 -2.46875 3.953125l-0.421875 -0.59375q1.453125 -0.984375 1.453125 -2.25zm10.876465 -14.593735q0 -0.96875 -0.40625 -1.3125q-0.390625 -0.34375 -1.390625 -0.390625l0.0625 -0.765625q0.984375 -0.171875 3.4375 -0.890625l0.5 0.265625l0 10.09375l3.34375 -3.546875q0.5 -0.5 0.78125 -1.4375l3.46875 0l0.0625 0.765625q-1.75 0.078125 -2.75 1.125l-2.3125 2.375l3.765625 6.25q0.84375 0.51560974 2.328125 0.73435974l-0.09375 0.890625l-3.6875 0l-3.78125 -6.3593597l-1.125 1.15625l0 3.625q0.65625 0.46873474 1.796875 0.68748474l-0.09375 0.890625l-5.703125 0l0.09375 -0.9375q1.03125 -0.171875 1.703125 -0.64060974l0 -12.578125z" fill-rule="nonzero"></path><path fill="#000000" d="m672.8307 261.22946l0 -0.75q1.296875 -0.03125 1.984375 -0.5625q0.703125 -0.546875 0.703125 -1.46875q0 -0.921875 -0.421875 -1.359375q-0.421875 -0.4375 -1.1875 -0.4375q-0.765625 0 -1.1875 0.421875q-0.421875 0.40625 -0.421875 1.03125q0 0.34375 0.171875 0.65625q-0.40625 0.296875 -0.828125 0.296875q-0.40625 0 -0.625 -0.296875q-0.21875 -0.3125 -0.21875 -0.8125q0 -0.875 0.890625 -1.484375q0.890625 -0.62498474 2.265625 -0.62498474q1.390625 0 2.265625 0.70310974q0.875 0.6875 0.875 1.796875q0 1.796875 -2.203125 2.5q2.328125 0.5625 2.328125 2.640625q0 1.28125 -0.953125 2.109375q-0.9375 0.8125 -2.5 0.8125q-1.5625 0 -2.484375 -0.625q-0.90625 -0.625 -0.90625 -1.703125q0 -0.453125 0.28125 -0.703125q0.296875 -0.25 0.71875 -0.25q0.4375 0 0.8125 0.296875q-0.15625 0.375 -0.15625 0.734375q0 0.65625 0.484375 1.0625q0.5 0.390625 1.359375 0.390625q0.859375 0 1.34375 -0.578125q0.5 -0.578125 0.5 -1.578125q0 -1.015625 -0.734375 -1.609375q-0.734375 -0.609375 -2.15625 -0.609375z" fill-rule="nonzero"></path><path fill="#000000" fill-opacity="0.0" d="m625.0824 181.86194l34.92914 0l0 52.18898l-34.92914 0z" fill-rule="evenodd"></path><path fill="#000000" d="m636.7699 204.8707q0 -0.953125 -0.40625 -1.296875q-0.390625 -0.359375 -1.390625 -0.40625l0.0625 -0.765625q0.984375 -0.15625 3.4375 -0.890625l0.5 0.265625l0 10.546875q0.65625 0.46875 1.8125 0.6875l-0.109375 0.890625l-5.703125 0l0.09375 -0.9375q1.03125 -0.171875 1.703125 -0.640625l0 -7.453125zm2.328125 -6.703125q0 1.5 -1.359375 1.5q-1.359375 0 -1.359375 -1.5q0 -1.5 1.359375 -1.5q1.359375 0 1.359375 1.5z" fill-rule="nonzero"></path><path fill="#000000" fill-opacity="0.0" d="m483.3226 179.28558l69.10239 0l0 52.18898l-69.10239 0z" fill-rule="evenodd"></path><path fill="#000000" d="m497.52573 195.5912q0 1.5 -1.359375 1.5q-1.34375 0 -1.34375 -1.5q0 -1.5 1.34375 -1.5q1.359375 0 1.359375 1.5zm-2.203125 13.84375l2.203125 0l0 2.734375q0 3.421875 -1.40625 4.34375q-0.625 0.40625 -1.703125 0.40625q-1.0625 0 -1.84375 -0.484375q-0.78125 -0.484375 -0.78125 -1.515625q0 -0.59375 0.34375 -1.0q0.328125 -0.40625 0.96875 -0.40625q0.640625 0 0.921875 0.5q-0.390625 0.34375 -0.390625 0.796875q0 0.453125 0.25 0.71875q0.265625 0.265625 0.71875 0.265625q1.03125 0 1.03125 -1.6875q0 -0.84375 -0.15625 -2.15625q-0.15625 -1.296875 -0.15625 -2.515625zm0 0l0 -7.140625q0 -0.953125 -0.40625 -1.296875q-0.390625 -0.359375 -1.390625 -0.40625l0.0625 -0.765625q0.984375 -0.15625 3.4375 -0.890625l0.5 0.265625l0 10.234375l-2.203125 0zm7.172119 2.328125q0 -0.875 -0.734375 -0.875q-0.078125 0 -0.46875 0.09375q-0.3125 -0.296875 -0.3125 -0.875q0 -0.578125 0.40625 -0.921875q0.421875 -0.359375 1.078125 -0.359375q0.65625 0 1.0625 0.515625q0.40625 0.5 0.40625 1.3125q0 2.453125 -2.46875 3.953125l-0.421875 -0.59375q1.453125 -0.984375 1.453125 -2.25zm10.923309 -9.40625q0 -0.96875 -0.40625 -1.3125q-0.390625 -0.34375 -1.3905945 -0.40625l0.0625 -0.765625q0.5312195 -0.09375 3.1718445 -0.859375l0.453125 0.234375l0.265625 1.8125q1.375 -2.046875 3.09375 -2.046875q0.9375 0 1.625 0.5625q0.6875 0.546875 0.6875 1.375q0 0.828125 -0.375 1.3125q-0.375 0.46875 -0.921875 0.46875q-0.53125 0 -0.921875 -0.21875q-0.375 -0.21875 -0.46875 -0.578125q0.265625 -0.25 0.265625 -0.71875q0 -0.78125 -0.75 -0.78125q-0.734375 0 -1.46875 1.109375q-0.71875 1.09375 -0.71875 2.3125l0 5.890625q0.71875 0.46875 2.046875 0.6875l-0.09375 0.890625l-5.9530945 0l0.09375 -0.9375q1.0312195 -0.171875 1.7030945 -0.640625l0 -7.390625z" fill-rule="nonzero"></path><path fill="#000000" d="m524.3218 211.60683l-2.28125 0l0 -0.734375q1.734375 -0.171875 3.203125 -0.953125l0.578125 0.234375l0 9.078125q0.609375 0.328125 2.125 0.5l-0.0625 0.59375l-5.921875 0l0.046875 -0.59375q1.5 -0.15625 2.3125 -0.5l0 -7.625z" fill-rule="nonzero"></path><path fill="#ffffff" d="m587.5158 162.27318l19.685059 0l0 20.283463l-19.685059 0z" fill-rule="evenodd"></path><path stroke="#000000" stroke-width="2.0" stroke-linejoin="round" stroke-linecap="butt" d="m587.5158 162.27318l19.685059 0l0 20.283463l-19.685059 0z" fill-rule="evenodd"></path><path fill="#000000" fill-opacity="0.0" d="m607.20087 172.4149l0 0" fill-rule="evenodd"></path><path stroke="#000000" stroke-width="1.0" stroke-linejoin="round" stroke-linecap="butt" d="m607.20087 172.4149l0 0" fill-rule="evenodd"></path><path fill="#000000" fill-opacity="0.0" d="m627.4775 172.4149l-20.283447 0" fill-rule="evenodd"></path><path stroke="#000000" stroke-width="2.0" stroke-linejoin="round" stroke-linecap="butt" d="m627.4775 172.4149l-20.283447 0" fill-rule="evenodd"></path><path fill="#000000" fill-opacity="0.0" d="m574.2207 179.87585l47.55902 0l0 52.188965l-47.55902 0z" fill-rule="evenodd"></path><path fill="#000000" d="m591.14374 202.9471q0 -0.96875 -0.40625 -1.3125q-0.390625 -0.34375 -1.390625 -0.40625l0.0625 -0.765625q0.53125 -0.09375 3.171875 -0.859375l0.453125 0.234375l0.265625 1.8125q1.375 -2.046875 3.09375 -2.046875q0.9375 0 1.625 0.5625q0.6875 0.546875 0.6875 1.375q0 0.828125 -0.375 1.3125q-0.375 0.46875 -0.921875 0.46875q-0.53125 0 -0.921875 -0.21875q-0.375 -0.21875 -0.46875 -0.578125q0.265625 -0.25 0.265625 -0.71875q0 -0.78125 -0.75 -0.78125q-0.734375 0 -1.46875 1.109375q-0.71875 1.09375 -0.71875 2.3125l0 5.890625q0.71875 0.46875 2.046875 0.6875l-0.09375 0.890625l-5.953125 0l0.09375 -0.9375q1.03125 -0.171875 1.703125 -0.640625l0 -7.390625z" fill-rule="nonzero"></path><path fill="#000000" d="m599.8287 220.91585l0 -0.96875q2.875 -2.46875 3.953125 -3.921875q1.078125 -1.453125 1.078125 -2.765625q0 -1.96875 -1.75 -1.96875q-0.765625 0 -1.234375 0.453125q-0.453125 0.453125 -0.453125 1.0625q0 0.59375 0.34375 1.046875q-0.328125 0.375 -0.828125 0.375q-0.5 0 -0.796875 -0.296875q-0.296875 -0.3125 -0.296875 -0.96875q0 -0.96875 0.96875 -1.71875q0.96875 -0.765625 2.40625 -0.765625q1.4375 0 2.328125 0.796875q0.90625 0.78125 0.90625 2.125q0 1.328125 -1.109375 2.78125q-1.09375 1.453125 -3.703125 3.46875l5.234375 0l0 1.265625l-7.046875 0z" fill-rule="nonzero"></path><path fill="#ffffff" d="m355.19806 162.76102l19.685059 0l0 20.283463l-19.685059 0z" fill-rule="evenodd"></path><path stroke="#000000" stroke-width="2.0" stroke-linejoin="round" stroke-linecap="butt" d="m355.19806 162.76102l19.685059 0l0 20.283463l-19.685059 0z" fill-rule="evenodd"></path><path fill="#000000" fill-opacity="0.0" d="m374.88312 172.90276l122.77164 -0.47244263" fill-rule="evenodd"></path><path stroke="#000000" stroke-width="2.0" stroke-linejoin="round" stroke-linecap="butt" stroke-dasharray="8.0,6.0" d="m374.88312 172.90276l122.77164 -0.47244263" fill-rule="evenodd"></path><path fill="#000000" fill-opacity="0.0" d="m365.0406 183.04448l37.73227 192.28346" fill-rule="evenodd"></path><path stroke="#000000" stroke-width="2.0" stroke-linejoin="round" stroke-linecap="butt" stroke-dasharray="8.0,6.0" d="m365.0406 183.04448l37.73227 192.28346" fill-rule="evenodd"></path><path fill="#000000" fill-opacity="0.0" d="m392.93167 385.47495c-94.99213 0 -189.98425 -45.84253 -189.98425 -91.68506" fill-rule="evenodd"></path><path stroke="#000000" stroke-width="2.0" stroke-linejoin="round" stroke-linecap="butt" stroke-dasharray="8.0,6.0" d="m392.93167 385.47495c-94.99213 0 -189.98425 -45.84253 -189.98425 -91.68506" fill-rule="evenodd"></path><path fill="#000000" fill-opacity="0.0" d="m381.20593 138.87927l0 13.070862" fill-rule="evenodd"></path><path stroke="#000000" stroke-width="2.0" stroke-linejoin="round" stroke-linecap="butt" d="m381.20593 138.87927l0 13.070862" fill-rule="evenodd"></path><path fill="#000000" fill-opacity="0.0" d="m258.84558 145.29274l122.35834 0" fill-rule="evenodd"></path><path stroke="#000000" stroke-width="2.0" stroke-linejoin="round" stroke-linecap="butt" d="m258.84558 145.29274l122.35834 0" fill-rule="evenodd"></path><path fill="#000000" fill-opacity="0.0" d="m259.2061 138.87927l0 13.070862" fill-rule="evenodd"></path><path stroke="#000000" stroke-width="2.0" stroke-linejoin="round" stroke-linecap="butt" d="m259.2061 138.87927l0 13.070862" fill-rule="evenodd"></path><path fill="#000000" fill-opacity="0.0" d="m290.36487 95.5784l59.811035 0l0 52.18898l-59.811035 0z" fill-rule="evenodd"></path><path fill="#000000" d="m312.89102 113.46215q0 -0.96875 -0.40625 -1.3125q-0.390625 -0.34375 -1.390625 -0.390625l0.0625 -0.765625q0.984375 -0.171875 3.4375 -0.890625l0.5 0.265625l0 10.09375l3.34375 -3.546875q0.5 -0.5 0.78125 -1.4375l3.46875 0l0.0625 0.765625q-1.75 0.078125 -2.75 1.125l-2.3125 2.375l3.765625 6.25q0.84375 0.515625 2.328125 0.734375l-0.09375 0.890625l-3.6875 0l-3.78125 -6.359375l-1.125 1.15625l0 3.625q0.65625 0.46875 1.796875 0.6875l-0.09375 0.890625l-5.703125 0l0.09375 -0.9375q1.03125 -0.171875 1.703125 -0.640625l0 -12.578125z" fill-rule="nonzero"></path><path fill="#000000" d="m326.4576 127.89965l-2.28125 0l0 -0.734375q1.734375 -0.171875 3.203125 -0.953125l0.578125 0.234375l0 9.078117q0.609375 0.328125 2.125 0.5l-0.0625 0.59375l-5.921875 0l0.046875 -0.59375q1.5 -0.15625 2.3125 -0.5l0 -7.6249924z" fill-rule="nonzero"></path><path fill="#000000" fill-opacity="0.0" d="m728.7449 147.4245l43.02362 0l0 38.48819l-43.02362 0z" fill-rule="evenodd"></path><path fill="#000000" d="m747.6183 177.51138q-2.125 2.28125 -3.6875 2.28125q-1.015625 0 -1.875 -0.78125l0 0.625q0 1.078125 0.328125 2.171875q0.375 1.203125 0.375 1.59375q0 0.546875 -0.34375 0.890625q-0.34375 0.359375 -0.84375 0.359375q-0.515625 0 -0.828125 -0.421875q-0.296875 -0.40625 -0.296875 -0.984375q0 -0.421875 0.3125 -1.515625q0.34375 -1.21875 0.34375 -2.375l0 -10.625l1.9375 0l0 6.953125q0 1.046875 0.171875 1.546875q0.1875 0.484375 0.640625 0.796875q0.46875 0.3125 1.0625 0.3125q1.046875 0 2.703125 -1.4375l0 -8.171875l1.953125 0l0 8.140625q0 1.03125 0.203125 1.421875q0.21875 0.390625 0.71875 0.390625q0.796875 0 1.03125 -1.546875l0.421875 0q-0.21875 2.65625 -2.25 2.65625q-0.875 0 -1.46875 -0.59375q-0.578125 -0.59375 -0.609375 -1.6875z" fill-rule="nonzero"></path><path fill="#000000" d="m752.21985 189.85513q-0.53125 -0.296875 -0.53125 -0.828125q0 -0.625 0.65625 -1.953125q0.671875 -1.328125 1.765625 -3.0625q-0.96875 -0.078125 -1.71875 -0.078125l-0.5625 0q0.296875 -0.828125 1.65625 -0.828125q0.4375 0 1.15625 0.109375q1.234375 -1.859375 2.5 -3.5q1.28125 -1.640625 2.015625 -2.328125q0.453125 -0.4375 0.765625 -0.4375q0.328125 0 0.84375 0.5q-0.3125 0.265625 -0.921875 2.078125q-0.609375 1.8125 -1.09375 3.96875q-0.484375 2.15625 -0.484375 3.46875q0 0.640625 0.140625 0.96875q0.140625 0.3125 0.453125 0.3125q0.890625 0 2.109375 -2.375l0.15625 0.15625q-0.5 1.3125 -1.25 2.125q-0.734375 0.796875 -1.515625 0.796875q-0.640625 0 -0.953125 -0.5625q-0.296875 -0.578125 -0.296875 -1.578125q0 -1.03125 0.265625 -2.390625q-1.015625 -0.15625 -2.359375 -0.328125q-1.578125 2.890625 -2.796875 5.765625zm5.265625 -6.0q0.34375 -1.5 0.859375 -3.109375q0.53125 -1.625 1.0625 -2.796875q-0.71875 0.453125 -1.765625 1.890625q-1.046875 1.4375 -2.21875 3.515625q0.640625 0.140625 1.34375 0.328125l0.71875 0.171875z" fill-rule="nonzero"></path><path fill="#000000" fill-opacity="0.0" d="m666.63257 360.87854l59.811035 0l0 38.48819l-59.811035 0z" fill-rule="evenodd"></path><path fill="#000000" d="m691.35974 390.96542q-2.125 2.28125 -3.6875 2.28125q-1.015625 0 -1.875 -0.78125l0 0.625q0 1.078125 0.328125 2.171875q0.375 1.203125 0.375 1.59375q0 0.546875 -0.34375 0.890625q-0.34375 0.359375 -0.84375 0.359375q-0.515625 0 -0.828125 -0.421875q-0.296875 -0.40625 -0.296875 -0.984375q0 -0.421875 0.3125 -1.515625q0.34375 -1.21875 0.34375 -2.375l0 -10.625l1.9375 0l0 6.953125q0 1.046875 0.171875 1.546875q0.1875 0.484375 0.640625 0.796875q0.46875 0.3125 1.0625 0.3125q1.046875 0 2.703125 -1.4375l0 -8.171875l1.953125 0l0 8.140625q0 1.03125 0.203125 1.421875q0.21875 0.390625 0.71875 0.390625q0.796875 0 1.03125 -1.546875l0.421875 0q-0.21875 2.65625 -2.25 2.65625q-0.875 0 -1.46875 -0.59375q-0.578125 -0.59375 -0.609375 -1.6875z" fill-rule="nonzero"></path><path fill="#000000" d="m697.93005 378.40292q0 -0.40625 -0.203125 -0.640625q-0.203125 -0.25 -0.5 -0.25q-0.28125 0 -0.5 0.125q-0.3125 -0.3125 -0.3125 -0.890625q0 -0.578125 0.40625 -0.921875q0.40625 -0.359375 1.0625 -0.359375q0.671875 0 1.078064 0.515625q0.40625 0.5 0.40625 1.3125q0 1.96875 -1.984314 3.3125l-0.515625 -0.59375q1.0625 -0.75 1.0625 -1.609375z" fill-rule="nonzero"></path><path fill="#000000" d="m705.1133 391.10605q3.890625 0 3.890625 2.703125q0 1.796875 -1.890625 2.34375q1.109375 0.34375 1.71875 1.046875q0.625 0.6875 0.625 1.65625q0 1.421875 -1.03125 2.25q-1.03125 0.8125 -2.859375 0.8125l-5.03125 0l0.09375 -0.640625q1.0 -0.109375 1.5625 -0.453125l0 -8.640625q-0.5625 -0.328125 -1.65625 -0.4375l0.078125 -0.640625l4.5 0zm-1.40625 9.96875l1.859375 0q1.140625 0 1.734375 -0.5625q0.59375 -0.5625 0.59375 -1.625q0 -1.078125 -0.703125 -1.65625q-0.6875 -0.59375 -2.0625 -0.59375l-1.421875 0l0 4.4375zm0 -5.28125l1.4375 0q1.21875 0 1.78125 -0.484375q0.5625 -0.484375 0.5625 -1.46875q0 -1.0 -0.578125 -1.46875q-0.5625 -0.46875 -1.8125 -0.46875q-0.484375 0 -1.390625 0.046875l0 3.84375z" fill-rule="nonzero"></path><path fill="#000000" fill-opacity="0.0" d="m609.492 321.0856l47.55902 0l0 52.188965l-47.55902 0z" fill-rule="evenodd"></path><path fill="#000000" d="m626.51105 344.15683q0 -0.96875 -0.40625 -1.3125q-0.390625 -0.34375 -1.390625 -0.40625l0.0625 -0.765625q0.53125 -0.09375 3.171875 -0.859375l0.453125 0.234375l0.265625 1.8125q1.375 -2.046875 3.09375 -2.046875q0.9375 0 1.625 0.5625q0.6875 0.546875 0.6875 1.375q0 0.828125 -0.375 1.3125q-0.375 0.46875 -0.921875 0.46875q-0.53125 0 -0.921875 -0.21875q-0.375 -0.21875 -0.46875 -0.578125q0.265625 -0.25 0.265625 -0.71875q0 -0.78125 -0.75 -0.78125q-0.734375 0 -1.46875 1.109375q-0.71875 1.09375 -0.71875 2.3125l0 5.890625q0.71875 0.46875 2.046875 0.6875l-0.09375 0.890625l-5.953125 0l0.09375 -0.9375q1.03125 -0.171875 1.703125 -0.640625l0 -7.390625z" fill-rule="nonzero"></path><path fill="#000000" d="m637.446 357.06308l0 -0.75q1.296875 -0.03125 1.984375 -0.5625q0.703125 -0.546875 0.703125 -1.46875q0 -0.921875 -0.421875 -1.359375q-0.421875 -0.4375 -1.1875 -0.4375q-0.765625 0 -1.1875 0.421875q-0.421875 0.40625 -0.421875 1.03125q0 0.34375 0.171875 0.65625q-0.40625 0.296875 -0.828125 0.296875q-0.40625 0 -0.625 -0.296875q-0.21875 -0.3125 -0.21875 -0.8125q0 -0.875 0.890625 -1.484375q0.890625 -0.625 2.265625 -0.625q1.390625 0 2.265625 0.703125q0.875 0.6875 0.875 1.796875q0 1.796875 -2.203125 2.5q2.328125 0.5625 2.328125 2.640625q0 1.28125 -0.953125 2.109375q-0.9375 0.8125 -2.5 0.8125q-1.5625 0 -2.484375 -0.625q-0.90625 -0.625 -0.90625 -1.703125q0 -0.453125 0.28125 -0.703125q0.296875 -0.25 0.71875 -0.25q0.4375 0 0.8125 0.296875q-0.15625 0.375 -0.15625 0.734375q0 0.65625 0.484375 1.0625q0.5 0.390625 1.359375 0.390625q0.859375 0 1.34375 -0.578125q0.5 -0.578125 0.5 -1.578125q0 -1.015625 -0.734375 -1.609375q-0.734375 -0.609375 -2.15625 -0.609375z" fill-rule="nonzero"></path><path fill="#000000" fill-opacity="0.0" d="m324.99475 171.84064l47.55905 0l0 38.48819l-47.55905 0z" fill-rule="evenodd"></path><path fill="#000000" d="m340.0509 203.88063l0 -14.359375q0 -0.8125 -0.421875 -1.125q-0.421875 -0.328125 -1.375 -0.375l0.0625 -0.765625q0.984375 -0.171875 3.4375 -0.890625l0.5 0.265625l0 6.734375q1.03125 -1.796875 2.96875 -1.796875q2.546875 0 3.71875 1.65625q1.1875 1.65625 1.1875 4.5q0 2.84375 -1.390625 4.59375q-1.390625 1.75 -4.015625 1.75q-1.609375 0 -2.921875 -1.265625q-0.359375 0.53125 -0.53125 1.078125l-1.21875 0zm2.203125 -5.296875l0 3.09375q1.390625 1.296875 2.4375 1.296875q1.0625 0 1.6875 -0.4375q0.625 -0.453125 0.921875 -1.296875q0.46875 -1.390625 0.46875 -3.015625q0 -1.640625 -0.078125 -2.40625q-0.0625 -0.765625 -0.296875 -1.5625q-0.484375 -1.578125 -2.171875 -1.578125q-1.890625 0 -2.484375 1.890625q-0.484375 1.5625 -0.484375 4.015625z" fill-rule="nonzero"></path><path fill="#000000" d="m351.92276 212.88063l0 -0.96875q2.875 -2.46875 3.953125 -3.921875q1.078125 -1.453125 1.078125 -2.765625q0 -1.96875 -1.75 -1.96875q-0.765625 0 -1.234375 0.453125q-0.453125 0.453125 -0.453125 1.0625q0 0.59375 0.34375 1.046875q-0.328125 0.375 -0.828125 0.375q-0.5 0 -0.796875 -0.296875q-0.296875 -0.3125 -0.296875 -0.96875q0 -0.96875 0.96875 -1.71875q0.96875 -0.765625 2.40625 -0.765625q1.4375 0 2.328125 0.796875q0.90625 0.78125 0.90625 2.125q0 1.328125 -1.109375 2.78125q-1.09375 1.453125 -3.703125 3.46875l5.234375 0l0 1.265625l-7.046875 0z" fill-rule="nonzero"></path></g></svg>

